<svg id="Capa_1" data-name="Capa 1" xmlns="http://www.w3.org/2000/svg" xmlns:xlink="http://www.w3.org/1999/xlink" viewBox="0 0 272.29 269.29"><defs><style>.cls-1{fill:none;}.cls-2{clip-path:url(#clip-path);}.cls-3{fill:#029f7c;}.cls-4{fill:#cbcdcc;}</style><clipPath id="clip-path" transform="translate(-419.2 -439.38)"><rect class="cls-1" x="387.76" y="396.13" width="334.59" height="345.18"/></clipPath></defs><g class="cls-2"><path class="cls-3" d="M659.25,649.23a.28.28,0,0,0,.09.18,1,1,0,0,0,.42.86.25.25,0,0,0,.06.2,9.35,9.35,0,0,1-.84,6.59l-.05.11c-1.45,1.91-3.35,3.36-4.85,5.21a.3.3,0,0,0-.18.15,7.19,7.19,0,0,0-2.22,2.14c-1.77,2.16-4,3.78-5.74,6a.11.11,0,0,0-.11.1A40.85,40.85,0,0,0,642,675l-.06,0a2.57,2.57,0,0,0-.94.94.11.11,0,0,0-.09.09l-.42.44-.07.08L640,677a.14.14,0,0,0-.08.1c-2.2,2.5-4.67,4.31-8.13,3.68-2.45-.83-4.3-2.68-6.33-4.22-4.37-3.3-8.72-6.63-13.07-9.95a2.46,2.46,0,0,0-3.17-.12c-2.17,1.4-4.42,2.67-6.63,4a8.54,8.54,0,0,0-1,.42,96.66,96.66,0,0,1-12.47,5.51,58.68,58.68,0,0,0-6.29,2.35h0a2.7,2.7,0,0,0-2.95,2.09,11.59,11.59,0,0,0-.5,2.86l0,.29a6.16,6.16,0,0,0-.45,2.59l0,.3c-.11.41-.27.82-.34,1.24-.78,4.82-1.53,9.66-2.62,14.42l0,.05a2.43,2.43,0,0,0-.51,1.25c-1.48,3-3.79,4.76-7,4.78-9,.06-18,0-27,0l-1.94-.52a.2.2,0,0,0-.17-.09,9.47,9.47,0,0,1-4.62-7.16c-.34-2.14-.72-4.29-1.2-6.4s-.73-4.57-1.43-6.77h0a7.63,7.63,0,0,0-.49-2.88h0a17.41,17.41,0,0,0-.49-3.3,2.94,2.94,0,0,0-2.89-2.79l-.07,0a3.85,3.85,0,0,0-1.9-.5l-.07,0a1.81,1.81,0,0,0-1.47-.47,85.42,85.42,0,0,1-16.71-7.16,64.4,64.4,0,0,1-6.83-4.15c-1.11-.82-2.08-.33-3,.41q-7.57,5.91-15.16,11.8c-1.57,1.22-3.16,2.32-5.23,2.39a7.41,7.41,0,0,1-5.88-2.48q-8.79-9.24-17.62-18.44c-.38-.39-.76-.79-1.13-1.21-3-3.33-3.2-7.09-.68-10.78,3.93-5.75,7.94-11.45,11.67-17.35a3.31,3.31,0,0,0,.21-3.83A93.28,93.28,0,0,1,457.07,611c-.26-.77-.11-.92.56-.92l19.13.08a1.09,1.09,0,0,1,1.12.8,84.81,84.81,0,0,0,13.65,21.48,82.66,82.66,0,0,0,14.7,13.42,84.36,84.36,0,0,0,27.09,13,80.12,80.12,0,0,0,31.32,2.5,82.06,82.06,0,0,0,32-10.61,88,88,0,0,0,22-17.87,77,77,0,0,0,13.9-22.1.89.89,0,0,1,1-.67q9.51,0,19,.05c.7,0,.8.36.61.89a30.33,30.33,0,0,1-2.26,5.61,14.14,14.14,0,0,0-.87,2.28,54.44,54.44,0,0,1-4.14,8.3,2.31,2.31,0,0,0,.1,2.85q4.91,7,9.79,14.08a4,4,0,0,0,1,1.48v0a.67.67,0,0,0,.44.55h0a2.52,2.52,0,0,0,.9,1.33l0,.07.13.2a.21.21,0,0,0,.07.15.39.39,0,0,0,.31.35l0,0A.92.92,0,0,0,659.25,649.23Z" transform="translate(-419.2 -439.38)"/><path class="cls-3" d="M643.05,537.78c-3.17,0-6.34,0-9.51,0a.82.82,0,0,1-.91-.6c-6.3-14-15.22-25.78-27.2-34.82a84.74,84.74,0,0,0-21.79-11.87,79.38,79.38,0,0,0-33.15-5,84.59,84.59,0,0,0-40,13,83.11,83.11,0,0,0-16.9,14.26,92.12,92.12,0,0,0-14.63,21.65,12.48,12.48,0,0,0-1.26,2.84.75.75,0,0,1-.87.68c-6.25-.21-12.5-.22-18.76-.09-1.17,0-1.31-.18-.85-1.34a105.46,105.46,0,0,1,6.65-14.72,4.21,4.21,0,0,0-.2-5.09c-4-5.89-7.89-11.87-11.73-17.88-2.26-3.53-1.76-6.73,1.11-9.74,6.11-6.43,12.47-12.6,18.37-19.27,2.13-2.41,4.69-3.63,7.88-2.89,1.62.38,2.83,1.54,4.11,2.53q7.51,5.79,14.94,11.71c.94.75,1.67.39,2.47-.09a118.43,118.43,0,0,1,15.58-8,75.16,75.16,0,0,1,11.39-3.84c2.09-.48,3-1.82,3.34-3.81,1.09-6.17,2.55-12.27,3.46-18.48a9.5,9.5,0,0,1,1.63-4.43,7.18,7.18,0,0,1,6.19-3.16c8.64.17,17.29.15,25.93,0a8.09,8.09,0,0,1,7.89,7c1,6.27,2.09,12.54,3.19,18.8.34,1.93,1.14,3.34,3.22,3.93a90.65,90.65,0,0,1,11.7,4.1,112.93,112.93,0,0,1,15.5,8c1.4.89,2.45.06,3.49-.86,3-2.63,6.29-4.84,9.42-7.29A81.71,81.71,0,0,1,629.3,468a7,7,0,0,1,9.29,1.19c4.25,4.46,8.41,9,12.65,13.5,2,2.09,4,4.07,6.08,6.1s3.29,4.36,2.52,7.46a11,11,0,0,1-1.78,3.56c-4,5.79-7.88,11.67-11.74,17.57a3,3,0,0,0-.12,3.54,108.85,108.85,0,0,1,6.95,15.59c.52,1.38.47,1.35-1,1.33-3.05,0-6.09,0-9.14,0Z" transform="translate(-419.2 -439.38)"/><path class="cls-3" d="M554.68,602.64a30.27,30.27,0,0,1-19.1-6.95c-1.44-1.18-1.42-1.17-.27-2.69,1.47-1.94,2.92-3.89,4.34-5.87.52-.73.88-.88,1.66-.26a24.44,24.44,0,0,0,14.07,5.35,10.32,10.32,0,0,0,6.08-1.3c3.43-2.09,3.54-6.13.21-8.4-2.1-1.44-4.52-2-6.86-2.81-4.35-1.44-8.77-2.66-12.67-5.31-7.67-5.23-7.63-17.48-2.37-22.7a21.19,21.19,0,0,1,13-6,27.15,27.15,0,0,1,15.41,2.57,28.65,28.65,0,0,1,5.77,3.63c.32.26.58.44.22.91-1.75,2.33-3.49,4.66-5.19,7-.41.58-.66.47-1.18.13-4.28-2.85-8.86-4.53-14-3.92a8.26,8.26,0,0,0-3.87,1.54,4.46,4.46,0,0,0-.11,7.56c2.19,1.63,4.79,2.26,7.28,3.12,3.35,1.17,6.84,1.86,10.05,3.53,3.42,1.78,6.26,4.11,7.67,8,2.31,6.43.19,15.72-7,19.81C564,601.8,559.85,602.6,554.68,602.64Z" transform="translate(-419.2 -439.38)"/><path class="cls-3" d="M512.26,545.55A24.83,24.83,0,0,1,523.93,548a23.3,23.3,0,0,1,5.61,3.5c.59.49.82.88.21,1.68-1.67,2.18-3.23,4.46-4.79,6.74-.44.65-.66.16-1-.06a20.16,20.16,0,0,0-9.53-3.92,14.53,14.53,0,0,0-6.7.61,4.89,4.89,0,0,0-3.6,4.19,4.84,4.84,0,0,0,2.73,5,36.74,36.74,0,0,0,8,3.17,45.49,45.49,0,0,1,9.62,3.65c8.44,4.85,9.48,14.72,4.92,21.66a17.77,17.77,0,0,1-12.8,7.94q-14.36,2.24-25.75-7.37c-.62-.53-.45-.85-.07-1.36,1.62-2.2,3.25-4.39,4.82-6.63.67-1,1.19-1,2.05-.21a22.56,22.56,0,0,0,16,5.66,7.83,7.83,0,0,0,5-2,4.36,4.36,0,0,0,.11-6.79,10.8,10.8,0,0,0-3.76-2.19c-3.88-1.42-7.81-2.72-11.67-4.21-3.6-1.39-6.84-3.35-9-6.95a16,16,0,0,1,2.18-18.63c4-4.09,9-5.56,14.39-5.89C511.47,545.52,512,545.55,512.26,545.55Z" transform="translate(-419.2 -439.38)"/><path class="cls-3" d="M582.7,574.11c0-8.82,0-17.64,0-26.46,0-1,.29-1.17,1.12-1.17q16.92.1,33.83.14c.89,0,1.12.32,1.1,1.21-.07,2.58-.12,5.16-.09,7.73,0,1.08-.29,1.42-1.34,1.41-7.07-.07-14.15-.07-21.23-.09-1.7,0-1.66,0-1.64,1.76,0,3.36.06,6.72,0,10.09,0,1,.15,1.35,1.19,1.34,6-.05,12,0,18,0,1,0,1.33.23,1.28,1.39-.11,2.61-.08,5.23,0,7.85,0,.84-.18,1.12-1,1.11-6,0-11.93,0-17.9-.07-1.13,0-1.45.37-1.44,1.57,0,5.94,0,11.88,0,17.81,0,1.91,0,1.9-1.73,1.92-2.88,0-5.76,0-8.64.14-1.16.06-1.37-.35-1.37-1.45,0-8.73,0-17.47,0-26.2Z" transform="translate(-419.2 -439.38)"/><path class="cls-3" d="M674.69,546.65c1.16,0,2.31,0,3.46,0a1.44,1.44,0,0,1,1.53,1c3.82,8.43,7.4,17,11.41,25.31a4,4,0,0,1-.13,3.7q-5.34,11.34-10.17,23c-.63,1.5-1.34,2.29-3.08,2.15a57,57,0,0,0-6.39.17c-.6,0-1.13,0-.62-.93,2.17-4.1,3.85-8.46,5.71-12.72s3.67-8.38,5.52-12.56a1.75,1.75,0,0,0,.11-1.58c-3.56-8.09-7.08-16.19-10.65-24.26-.33-.74-.68-1.46-1-2.21-.38-.91-.06-1.07.72-1,1.19,0,2.38,0,3.57,0Z" transform="translate(-419.2 -439.38)"/><path class="cls-4" d="M632.3,546.66c1.11,0,2.23.07,3.33,0a1.58,1.58,0,0,1,1.78,1.21c1.41,3.66,3,7.24,4.57,10.81,2.2,4.87,4.34,9.76,6.55,14.61a2.62,2.62,0,0,1,0,2.33c-3.59,8.15-7.29,16.25-10.63,24.53a2.12,2.12,0,0,1-2.25,1.63,40.57,40.57,0,0,0-7.14.11c-.78.11-.63-.48-.42-.94,1.46-3.2,2.84-6.46,4.42-9.6,1.86-3.69,3.16-7.64,5-11.33.61-1.23,1.18-2.48,1.77-3.73a3,3,0,0,0,.08-2.84,74,74,0,0,0-3.29-6.84,23.86,23.86,0,0,1-1.28-3.21c-.83-1.92-1.75-3.8-2.55-5.73-1.4-3.37-2.81-6.74-4.37-10-.33-.69-.13-1,.57-.94Z" transform="translate(-419.2 -439.38)"/><path class="cls-4" d="M653.44,546.64c1.11,0,2.23.07,3.33,0,.92-.08,1.32.34,1.6,1.18,2.1,6.22,5.13,12,7.74,18a46.94,46.94,0,0,0,2.87,6.46c1.34,2.12.57,3.74-.26,5.62-3.29,7.45-6.51,14.94-9.73,22.43-.72,1.66-1.08,1.94-3,1.64a21.06,21.06,0,0,0-5.88,0c-1,.12-1-.34-.64-1.07,2.33-5.27,4.64-10.56,7-15.84,1.22-2.75,2.46-5.5,3.76-8.21a4.27,4.27,0,0,0-.06-4c-2.54-5.61-4.93-11.29-7.52-16.86-1.27-2.73-2.23-5.62-3.7-8.24-.45-.82-.14-1.08.67-1.06C650.89,546.66,652.17,546.64,653.44,546.64Z" transform="translate(-419.2 -439.38)"/><path class="cls-4" d="M479.1,546.64h3.83c.58,0,.85.17.54.87q-2.36,5.24-4.67,10.51c-2.29,5.21-4.57,10.43-6.88,15.62a2.33,2.33,0,0,0,0,2.09c2.35,5.17,4.66,10.35,7,15.53q2.13,4.75,4.24,9.52c.11.27.35.52.16.85s-.48.18-.77.15a9,9,0,0,0-2.69.08c-1.76.32-3.51-.31-5.28-.17-.42,0-.47-.41-.6-.72-2.27-5.21-4.51-10.44-6.83-15.62-1.48-3.34-3-6.65-4.39-10a1.8,1.8,0,0,1,0-1.6c2.21-4.84,4.54-9.63,6.57-14.56,1.59-3.87,3.4-7.63,4.85-11.57a1.21,1.21,0,0,1,1.35-1c1.19,0,2.39,0,3.58,0Z" transform="translate(-419.2 -439.38)"/><path class="cls-4" d="M457.57,601.93h-.25c-1.35,0-3,.43-4-.22s-1.33-2.4-1.9-3.69q-5.07-11.53-10.12-23.08a2,2,0,0,1,.19-1.73c2.07-4.59,4.18-9.16,6.21-13.76,1.69-3.81,3.31-7.66,4.92-11.5a1.72,1.72,0,0,1,1.84-1.31q3.27.12,6.54,0c1.21,0,1.17.48.78,1.36-1,2.28-2,4.55-3,6.83-2.18,5-4.38,10-6.54,15-.42,1-.88,2-1.35,2.9-.85,1.67-.32,3,.32,4.42,2.34,5.22,4.87,10.34,7,15.67,1.08,2.74,2.48,5.3,3.66,8,.51,1.15.09,1.18-.72,1.17Z" transform="translate(-419.2 -439.38)"/><path class="cls-3" d="M438.13,551.59c-2.81,7.29-6.1,14.35-9.34,21.43-.7,1.55-.19,2.58.36,3.84,3.51,8,7.47,15.83,10.9,23.91.4,1,.19,1.1-.68,1.09q-3.83-.06-7.65,0c-.5,0-.71-.2-.9-.67-3.4-8.23-7.28-16.22-11-24.3a5.6,5.6,0,0,1,0-5.16c2.23-4.73,4.31-9.55,6.44-14.34.16-.35.26-.73.39-1.09l.14-.09-.06-.08a.25.25,0,0,0,.11-.21c.09-.24.18-.48.26-.71l.14-.08-.07-.07.12-.25c.37,0,.26-.32.23-.56.05,0,.06-.06,0-.12.45-.14.47-.53.45-.93a.14.14,0,0,0,.06-.15h.08l-.06-.06.27-.29v0l.2-.34C431.76,552.4,435,553,438.13,551.59Z" transform="translate(-419.2 -439.38)"/><path class="cls-4" d="M554.67,493.7a67.94,67.94,0,0,1,16.26,1.63,73.66,73.66,0,0,1,24.1,10,66.31,66.31,0,0,1,8.56,6.11c4.76,4.22,9.43,8.57,13,14a89.54,89.54,0,0,1,6.67,11.07c.19.39.6.92,0,1.2a1,1,0,0,1-1.39-.41c-.24-.51-.4-1.06-.65-1.56a61.08,61.08,0,0,0-5.68-9.26,76.2,76.2,0,0,0-17.24-17.19,73.75,73.75,0,0,0-25.12-11.71,76.56,76.56,0,0,0-14.61-2.08c-3.13-.15-6.24,0-9.35.14a57.27,57.27,0,0,0-10.42,1.74,80.14,80.14,0,0,0-21.67,8.7,66,66,0,0,0-11.91,9,82.77,82.77,0,0,0-11.38,13,64.56,64.56,0,0,0-5.27,9.14c-.39.81-.85,1.1-1.52.71s-.25-1.09,0-1.59c1.64-3.12,3.54-6.06,5.42-9A76.07,76.07,0,0,1,503.91,514a64.63,64.63,0,0,1,11.82-8.87,80.65,80.65,0,0,1,11.3-5.76,75.16,75.16,0,0,1,16.14-4.56A54.41,54.41,0,0,1,554.67,493.7Z" transform="translate(-419.2 -439.38)"/><path class="cls-4" d="M556.2,653.32a68.15,68.15,0,0,1-19.84-2.16,76.69,76.69,0,0,1-19.73-8.31,81.62,81.62,0,0,1-29.36-31.07c-.23-.41-.68-1,0-1.35s1.14-.16,1.54.59a82.32,82.32,0,0,0,12.9,17.9,75.42,75.42,0,0,0,17.95,13.77,72.45,72.45,0,0,0,31.2,8.88,72.12,72.12,0,0,0,12.3-.17,80.49,80.49,0,0,0,13.52-2.69,73,73,0,0,0,22.19-11,78,78,0,0,0,15.35-14.76,68.52,68.52,0,0,0,7.63-12c.41-.81,1-.66,1.58-.57s.28.54.13.81A83.92,83.92,0,0,1,614,625.61a79,79,0,0,1-14.68,13.66,72.37,72.37,0,0,1-19.86,10.17,78.68,78.68,0,0,1-17.82,3.7C559.48,653.31,557.31,653.24,556.2,653.32Z" transform="translate(-419.2 -439.38)"/><path class="cls-4" d="M555.86,502.59a50.34,50.34,0,0,1,7.86.56,65.77,65.77,0,0,1,17.12,4.56,63.48,63.48,0,0,1,18.31,11.59,75.51,75.51,0,0,1,10.06,11.27c1.35,1.9,2.52,4,3.74,6,.19.32.69.78.19,1.11a1,1,0,0,1-1.41-.36c-.34-.55-.7-1.08-1-1.64a57.32,57.32,0,0,0-10-12.66,73.75,73.75,0,0,0-8-6.71,62.21,62.21,0,0,0-13.42-7.36A64.31,64.31,0,0,0,563.65,505a57.32,57.32,0,0,0-15.09-.05,91.32,91.32,0,0,0-13.51,2.72,54,54,0,0,0-12.09,5.5,67,67,0,0,0-10.37,7.22,61.59,61.59,0,0,0-10.89,12c-1.08,1.59-2.06,3.25-3.05,4.91a1.12,1.12,0,0,1-1.07.69c-.92,0-1.16-.39-.68-1.19a70.48,70.48,0,0,1,6.16-9A74.24,74.24,0,0,1,523.42,511a63.85,63.85,0,0,1,15.67-6.12A76.74,76.74,0,0,1,555.86,502.59Z" transform="translate(-419.2 -439.38)"/><path class="cls-4" d="M555.17,644.41c-6.66.3-12.89-1-19-2.74a69.4,69.4,0,0,1-31.43-20.3,52.61,52.61,0,0,1-6.85-9.67c-.22-.4-.6-1,0-1.24a1,1,0,0,1,1.47.44,58.58,58.58,0,0,0,12.39,15.18,65.25,65.25,0,0,0,17.67,11.45,63.57,63.57,0,0,0,17.27,4.79,65.86,65.86,0,0,0,34-4.65,66.53,66.53,0,0,0,13-7.39c6.1-4.59,11.76-9.68,16-16.38.68-1.08,1.38-2.15,2.07-3.23a1,1,0,0,1,1.47-.43c.63.39.19.94-.06,1.35a64.6,64.6,0,0,1-10.92,13.56,67.32,67.32,0,0,1-12.35,9.67,64,64,0,0,1-20.17,8.06C564.74,643.8,559.9,644.7,555.17,644.41Z" transform="translate(-419.2 -439.38)"/><path class="cls-3" d="M438.13,551.59c-3.11,1.4-6.37.81-9.59.78.72-1.6,1.47-3.18,2.14-4.8a1.41,1.41,0,0,1,1.5-1c2.41,0,4.82-.13,7.23-.23.87,0,1.1.12.64,1.07A29.12,29.12,0,0,1,438.13,551.59Z" transform="translate(-419.2 -439.38)"/><path class="cls-4" d="M582.79,678.74a58.68,58.68,0,0,1,6.29-2.35,96.66,96.66,0,0,0,12.47-5.51,8.54,8.54,0,0,1,1-.42c-1,1.35-2.49,1.75-3.81,2.4a77.25,77.25,0,0,1-10.63,4.35C586.36,677.76,584.69,678.67,582.79,678.74Z" transform="translate(-419.2 -439.38)"/><path class="cls-4" d="M531.92,687.66c.7,2.2.92,4.52,1.43,6.77s.86,4.26,1.2,6.4a9.47,9.47,0,0,0,4.62,7.16,1.52,1.52,0,0,1-1.65-.5,10.73,10.73,0,0,1-3.59-8c0-.62-.39-1-.53-1.56-.57-2.14-.38-4.44-1.07-6.49A14.77,14.77,0,0,1,531.92,687.66Z" transform="translate(-419.2 -439.38)"/><path class="cls-4" d="M645.94,670.7c1.69-2.25,4-3.87,5.74-6a7.19,7.19,0,0,1,2.22-2.14c.12.66-.3,1-.67,1.44l-5.83,6.18C647,670.57,646.63,671.14,645.94,670.7Z" transform="translate(-419.2 -439.38)"/><path class="cls-4" d="M575.83,702.54c1.09-4.76,1.84-9.6,2.62-14.42.07-.42.23-.83.34-1.24.16,2.39-.5,4.66-.84,7-.18,1.22-.52,2.4-.66,3.63a19.27,19.27,0,0,1-1,4.86C576.2,702.45,576,702.48,575.83,702.54Z" transform="translate(-419.2 -439.38)"/><path class="cls-4" d="M631.78,680.76c3.46.63,5.93-1.18,8.13-3.68.61,1.3-.77,1.53-1.21,1.95-1.65,1.62-3.64,2.71-6.05,2.3C632.28,681.27,631.76,681.48,631.78,680.76Z" transform="translate(-419.2 -439.38)"/><path class="cls-4" d="M642,675a40.85,40.85,0,0,1,3.84-4.15s.06.08.06.12C646,672.11,643.15,675,642,675Z" transform="translate(-419.2 -439.38)"/><path class="cls-4" d="M654.08,662.38c1.5-1.85,3.4-3.3,4.85-5.21.22.49-.06.82-.36,1.13-1.2,1.28-2.42,2.54-3.62,3.83A.72.72,0,0,1,654.08,662.38Z" transform="translate(-419.2 -439.38)"/><path class="cls-4" d="M579.32,683.7a11.59,11.59,0,0,1,.5-2.86,2.7,2.7,0,0,1,2.95-2.09c0,.12-.08.33-.14.34-2.21.4-2.64,2.17-2.85,4.12A.49.49,0,0,1,579.32,683.7Z" transform="translate(-419.2 -439.38)"/><path class="cls-4" d="M528,678.68a2.94,2.94,0,0,1,2.89,2.79,17.41,17.41,0,0,1,.49,3.3.53.53,0,0,1-.46-.65c.23-1.16-.51-2.11-.61-3.23a1.91,1.91,0,0,0-1.69-1.63C528.32,679.2,528,679.2,528,678.68Z" transform="translate(-419.2 -439.38)"/><path class="cls-4" d="M659,657.06a9.35,9.35,0,0,0,.84-6.59c.14.08.38.15.39.25.17,2,.43,4.06-.54,6C659.54,656.93,659.35,657.22,659,657.06Z" transform="translate(-419.2 -439.38)"/><path class="cls-4" d="M531.42,684.77a7.63,7.63,0,0,1,.49,2.88C530.92,686.85,531.67,685.71,531.42,684.77Z" transform="translate(-419.2 -439.38)"/><path class="cls-4" d="M578.83,686.58a6.16,6.16,0,0,1,.45-2.59C579.16,684.86,579.75,685.87,578.83,686.58Z" transform="translate(-419.2 -439.38)"/><path class="cls-4" d="M526.07,678.16a3.85,3.85,0,0,1,1.9.5C527.33,678.53,526.47,679.29,526.07,678.16Z" transform="translate(-419.2 -439.38)"/><path class="cls-4" d="M539.34,708.08l1.94.52C540.63,708.48,539.79,709.09,539.34,708.08Z" transform="translate(-419.2 -439.38)"/><path class="cls-4" d="M641,675.94a2.57,2.57,0,0,1,.94-.94C642,675.71,641.89,676.29,641,675.94Z" transform="translate(-419.2 -439.38)"/><path class="cls-4" d="M656.89,645.7a4,4,0,0,1-1-1.48A1.31,1.31,0,0,1,656.89,645.7Z" transform="translate(-419.2 -439.38)"/><path class="cls-4" d="M658.25,647.62a2.52,2.52,0,0,1-.9-1.33C657.92,646.53,658.43,646.81,658.25,647.62Z" transform="translate(-419.2 -439.38)"/><path class="cls-4" d="M524.53,677.66a1.81,1.81,0,0,1,1.47.47C525.48,678.08,524.8,678.61,524.53,677.66Z" transform="translate(-419.2 -439.38)"/><path class="cls-4" d="M575.3,703.84a2.43,2.43,0,0,1,.51-1.25C575.79,703.08,576.14,703.73,575.3,703.84Z" transform="translate(-419.2 -439.38)"/><path class="cls-4" d="M428,553.19c0,.4,0,.79-.45.93A1.7,1.7,0,0,1,428,553.19Z" transform="translate(-419.2 -439.38)"/><path class="cls-4" d="M659.25,649.23a.92.92,0,0,1-.44-.81C659.38,648.43,659.34,648.81,659.25,649.23Z" transform="translate(-419.2 -439.38)"/><path class="cls-4" d="M659.76,650.27a1,1,0,0,1-.42-.86C659.86,649.49,659.85,649.86,659.76,650.27Z" transform="translate(-419.2 -439.38)"/><path class="cls-4" d="M640,677l.42-.43C640.58,677,640.44,677.17,640,677Z" transform="translate(-419.2 -439.38)"/><path class="cls-4" d="M640.48,676.47l.42-.44C641.08,676.52,640.93,676.65,640.48,676.47Z" transform="translate(-419.2 -439.38)"/><path class="cls-4" d="M427.51,554.24c0,.24.14.52-.23.56A.61.61,0,0,1,427.51,554.24Z" transform="translate(-419.2 -439.38)"/><path class="cls-4" d="M657.34,646.28a.67.67,0,0,1-.44-.55C657.22,645.76,657.37,645.93,657.34,646.28Z" transform="translate(-419.2 -439.38)"/><path class="cls-4" d="M658.79,648.39a.39.39,0,0,1-.31-.35C658.82,647.93,658.81,648.14,658.79,648.39Z" transform="translate(-419.2 -439.38)"/><polygon class="cls-4" points="8.89 113.6 8.95 113.66 8.86 113.66 8.89 113.6"/><path class="cls-4" d="M428.34,552.71v0Z" transform="translate(-419.2 -439.38)"/><path class="cls-4" d="M658.41,647.89l-.13-.2C658.45,647.67,658.5,647.73,658.41,647.89Z" transform="translate(-419.2 -439.38)"/><path class="cls-4" d="M426.72,556.12l.06.08-.14.09C426.61,556.2,426.64,556.14,426.72,556.12Z" transform="translate(-419.2 -439.38)"/><path class="cls-4" d="M427.16,555.05l.07.07-.14.08A.13.13,0,0,1,427.16,555.05Z" transform="translate(-419.2 -439.38)"/></g></svg>